# xmcd CD database file
#
# Track frame offsets:
#	150
#	17727
#	35205
#	51115
#	66340
#	83992
#	102410
#	116610
#	134980
#	152937
#	169582
#	183820
#	198415
#	214902
#	228784
#	242430
#	261117
#
# Disc length: 3677 seconds
#
# Revision: 5
# Processed by: cddbd v1.5.1PL0 Copyright (c) Steve Scherf et al.
# Submitted via: CDex 1.50
#
DISCID=f30e5b11
DTITLE=Westlife - Coast To Coast
DYEAR=2000
DGENRE=Pop
TTITLE0=My Love
TTITLE1=What Makes A Man
TTITLE2=I Lay My Love On You
TTITLE3=Against All Odds
TTITLE4=When You're Looking Like That
TTITLE5=Close
TTITLE6=Somebody Needs You
TTITLE7=Angel's Wings
TTITLE8=Soledad
TTITLE9=Puzzle Of My Heart
TTITLE10=Dreams Come True
TTITLE11=No Place That Far
TTITLE12=You Make Me Feel
TTITLE13=Loneliness Knows Me By Name
TTITLE14=Fragile Heart
TTITLE15=Every Little Thing You Do
TTITLE16=Nothing Is Impossible
EXTD=YEAR: 2000
EXTT0=my love
EXTT1=
EXTT2=
EXTT3=
EXTT4=
EXTT5=
EXTT6=
EXTT7=
EXTT8=
EXTT9=
EXTT10=
EXTT11=
EXTT12=
EXTT13=
EXTT14=
EXTT15=
EXTT16=
PLAYORDER=
